<svg height='100px' width='100px'  fill="#000000" xmlns="http://www.w3.org/2000/svg" data-name="Layer 1" viewBox="0 0 100 100" x="0px" y="0px"><title>All3</title><path d="M76.71,36.27c1.27-2.53,1.08-4-.64-5.19s-2.74-.79-5.66,2L61,25.24c0.45-.72.83-1.44,1.31-2.08a1.64,1.64,0,0,0,.08-1.93,15.36,15.36,0,0,0-15.23-9c-0.42,0-.85,0-1.5,0,0.51-.61.88-1.15,1.34-1.61C49.7,8,53.12,6.71,56.83,6A14.83,14.83,0,0,1,68.35,8.69,18.88,18.88,0,0,0,71,10.26a4.2,4.2,0,0,0,2,.49,6.11,6.11,0,0,1,4.43,1.48,36.09,36.09,0,0,1,3.56,3,8.94,8.94,0,0,1,1.48,2.39A8.72,8.72,0,0,1,83,19.37c0.83,3.28,3,4.15,5.9,2.31,2.51,2.14,5.07,4.27,7.56,6.47a2.54,2.54,0,0,1,.3,3.7c-0.53.71-1.15,1.34-1.74,2l-7,7.59c-1.55,1.69-2.61,1.8-4.4.39C81.33,40,79.05,38.14,76.71,36.27Z"></path><path d="M68.54,36L64.1,41.61l-40.41,51a5.11,5.11,0,0,1-7.75.82c-1.88-1.56-3.78-3.1-5.65-4.68a4.89,4.89,0,0,1-.53-7.37Q33.92,54.6,58.1,27.84a3.28,3.28,0,0,1,.31-0.23Z"></path><path d="M99.8,74.25a19.87,19.87,0,0,0-2.47-6.14,17.69,17.69,0,0,0-22.68-6.24,0.85,0.85,0,0,1-.72,0c-3.24-2.07-6.53-4.07-9.67-6.27q-1.52-1.07-3-2.2l-8,9.61q2.28,2,4.46,4.16c2.41,2.36,4.64,4.91,6.92,7.4a1.41,1.41,0,0,1,.31,1,17.22,17.22,0,0,0,.54,7A17.42,17.42,0,0,0,75.3,94a16.93,16.93,0,0,0,13.56.33A3.22,3.22,0,0,0,89.33,94,3.78,3.78,0,0,0,89,93.66q-5-4.14-10-8.28a1.27,1.27,0,0,1-.48-0.74c-0.12-2.17-.2-4.35-0.27-6.53a1.09,1.09,0,0,1,.24-0.65q1.44-1.81,2.93-3.58a1.09,1.09,0,0,1,.62-0.32c2.08-.33,4.15-0.66,6.23-0.93a1.48,1.48,0,0,1,1,.29c2.55,2.09,5.07,4.2,7.59,6.32,0.92,0.77,1.82,1.57,2.83,2.45,0.07-.41.11-0.6,0.13-0.8q0.19-1.59.37-3.18l-0.28-3A4.86,4.86,0,0,1,99.8,74.25Z"></path><path d="M35.19,29.52c-0.77-.89-1.27-1.67-0.6-2.8a1.15,1.15,0,0,0,.09-0.32A17.72,17.72,0,0,0,26.92,7.21,17.28,17.28,0,0,0,12.06,5.35c-0.3.09-.59,0.25-1,0.42l1.3,1.14q4.45,3.94,8.89,7.89a1.06,1.06,0,0,1,.35.67q0.08,3.23.08,6.46a1.18,1.18,0,0,1-.27.71c-1,1.12-1.93,2.24-2.92,3.32a1.49,1.49,0,0,1-.82.46c-2,.27-4,0.49-6.06.76a1.32,1.32,0,0,1-1.14-.38L2.31,19.51C1.7,19,1.07,18.44.34,17.8l-0.6,3.91,0.19,3.09C0,24.95,0,25.09.09,25.24a39.82,39.82,0,0,0,1.36,4.35,16.75,16.75,0,0,0,10,9.31A16.64,16.64,0,0,0,23,39a1.2,1.2,0,0,1,.92,0c1.27,0.8,2.55,1.59,3.73,2.5,2.13,1.64,4.28,3.27,6.39,5l8.32-9.42Q38.6,33.49,35.19,29.52Z"></path></svg>