<svg height='100px' width='100px'  fill="#000000" xmlns="http://www.w3.org/2000/svg" xmlns:xlink="http://www.w3.org/1999/xlink" xml:space="preserve" version="1.1" style="shape-rendering:geometricPrecision;text-rendering:geometricPrecision;image-rendering:optimizeQuality;" viewBox="0 0 1.555 1.555" x="0px" y="0px" fill-rule="evenodd" clip-rule="evenodd"><defs><style type="text/css">
   
    .fil0 {fill:red}
   
  </style></defs><g><path class="fil0" d="M0.777 0.847c-0.031,0 -0.052,-0.026 -0.055,-0.056l-0.028 -0.25c-0.005,-0.043 0.041,-0.083 0.083,-0.083 0.043,0 0.088,0.04 0.084,0.083l-0.028 0.25c-0.003,0.03 -0.024,0.056 -0.056,0.056zm0 -0.71l-0.11 0.121c-0.014,0.016 -0.037,0.021 -0.056,0.015l-0.162 -0.049 -0.001 0.146c0,0.027 -0.02,0.052 -0.048,0.055l-0.169 0.021 0.059 0.135c0.01,0.023 0.003,0.049 -0.016,0.064l-0.138 0.132 0.141 0.135c0.017,0.016 0.022,0.041 0.013,0.062l-0.059 0.135 0.169 0.021c0.029,0.004 0.05,0.03 0.048,0.059l0.001 0.142 0.162 -0.049c0.022,-0.007 0.044,0.001 0.058,0.017l0.108 0.119 0.11 -0.121c0.015,-0.016 0.038,-0.021 0.057,-0.015l0.161 0.049 0.002 -0.146c0,-0.022 0.007,-0.048 0.048,-0.055l0.169 -0.021 -0.059 -0.135c-0.01,-0.023 -0.003,-0.049 0.015,-0.065l0.139 -0.132 -0.141 -0.134c-0.017,-0.016 -0.022,-0.041 -0.013,-0.062l0.059 -0.135 -0.169 -0.021c-0.029,-0.004 -0.05,-0.03 -0.048,-0.059l-0.002 -0.142 -0.161 0.049c-0.022,0.007 -0.044,-0.001 -0.058,-0.017l-0.109 -0.119zm-0.168 0.02l0.127 -0.138c0.023,-0.024 0.059,-0.026 0.082,-0.001l0.127 0.139 0.197 -0.06c0.036,-0.012 0.073,0.014 0.073,0.052l0.002 0.172 0.194 0.023c0.036,0.005 0.059,0.043 0.044,0.077l-0.073 0.168 0.158 0.15c0.021,0.022 0.02,0.057 -0.002,0.079l-0.156 0.147 0.072 0.166c0.016,0.034 -0.005,0.075 -0.043,0.079l-0.194 0.024 -0.002 0.172c0,0.036 -0.035,0.063 -0.071,0.052l-0.199 -0.06 -0.126 0.138c-0.024,0.024 -0.059,0.026 -0.082,0.001l-0.128 -0.139 -0.197 0.06c-0.035,0.011 -0.072,-0.015 -0.073,-0.052l-0.001 -0.172 -0.194 -0.024c-0.036,-0.004 -0.059,-0.042 -0.044,-0.077l0.072 -0.168 -0.157 -0.149c-0.021,-0.023 -0.02,-0.058 0.002,-0.079l0.155 -0.148 -0.071 -0.166c-0.016,-0.033 0.005,-0.074 0.043,-0.079l0.194 -0.023 0.001 -0.172c0.001,-0.036 0.036,-0.063 0.072,-0.052l0.198 0.06zm0.168 0.773c0.046,0 0.084,0.037 0.084,0.083 0,0.046 -0.038,0.084 -0.084,0.084 -0.046,0 -0.083,-0.038 -0.083,-0.084 0,-0.046 0.037,-0.083 0.083,-0.083z"></path></g></svg>