<svg height='100px' width='100px'  fill="#000000" xmlns:dc="http://purl.org/dc/elements/1.1/" xmlns:cc="http://creativecommons.org/ns#" xmlns:rdf="http://www.w3.org/1999/02/22-rdf-syntax-ns#" xmlns:svg="http://www.w3.org/2000/svg" xmlns="http://www.w3.org/2000/svg" xmlns:sodipodi="http://sodipodi.sourceforge.net/DTD/sodipodi-0.dtd" xmlns:inkscape="http://www.inkscape.org/namespaces/inkscape" version="1.1" x="0px" y="0px" viewBox="0 0 32 32"><g transform="translate(0,-1020.3622)"><g transform="translate(-0.1874839,-0.08735)"><g transform="translate(0.18336736,-0.87410704)"><g transform="translate(131.00412,-557.03854)"><path style="text-indent:0;text-transform:none;direction:ltr;block-progression:tb;baseline-shift:baseline;color:#000000;enable-background:accumulate;" d="M 0.5,5 C 0.22387,5.00003 3e-5,5.22387 0,5.5 l 0,14 c 3e-5,0.27613 0.22387,0.49997 0.5,0.5 l 6.5,0 0,2 -2,0 0,1 2.40625,0 0.1875,0 0.46875,0 c 0.2338891,1.137145 1.233185,2 2.4375,2 l 8.5,0 0,1.5 c 2.6e-5,0.261792 0.238208,0.499974 0.5,0.5 l 6.5,0 0,0.5 c 2.6e-5,0.261792 0.238208,0.499974 0.5,0.5 l 5,0 c 0.261792,-2.6e-5 0.499974,-0.238208 0.5,-0.5 l 0,-8 c -2.6e-5,-0.261792 -0.238208,-0.499974 -0.5,-0.5 l -2.5,0 0,-4.5 c -2.6e-5,-0.261792 -0.238208,-0.499974 -0.5,-0.5 l -1.5,0 0,-1.5 c -3e-5,-0.27613 -0.22387,-0.49997 -0.5,-0.5 L 22,12 22,5.5 C 21.99997,5.22387 21.77613,5.00003 21.5,5 z m 0.5,1 20,0 0,6 -10.5,0 c -0.27613,3e-5 -0.49997,0.22387 -0.5,0.5 l 0,4.5 -9,0 z m 10,7 15,0 0,1 -6.5,0 c -0.261792,2.6e-5 -0.499974,0.238208 -0.5,0.5 l 0,7.5 -2,0 -6,0 z m 9,2 8,0 0,4 -1.5,0 c -0.05166,-0.0082 -0.104595,-0.0082 -0.15625,0 -0.206523,0.06766 -0.354529,0.282943 -0.34375,0.5 l 0,6.5 -6,0 z m -19,3 9,0 0,1 -2.34375,0 -0.3125,0 L 1,19 z m 7,2 2,0 0,2 -2,0 z m 19,0 4,0 0,5 -4,0 z M 9.21875,23 17,23 l 2,0 0,1 -8.5,0 C 9.8573,24 9.43562,23.5581 9.21875,23 z M 27,26 l 4,0 0,1 -4,0 0,-0.40625 c 0.0029,-0.03116 0.0029,-0.06259 0,-0.09375 z" transform="translate(-131,1578.3622)" fill="#000000" fill-opacity="1" fill-rule="nonzero" stroke="none" visibility="visible" display="inline" overflow="visible"></path></g></g></g></g></svg>