<svg height='100px' width='100px'  fill="#000000" xmlns="http://www.w3.org/2000/svg" xmlns:xlink="http://www.w3.org/1999/xlink" version="1.1" x="0px" y="0px" viewBox="0 0 48 48" enable-background="new 0 0 48 48" xml:space="preserve"><path d="M40.31,35.103H27.308c-0.698,0-1.317,0.443-1.544,1.104c-0.186,0.542-0.619,0.976-1.161,1.161  c-0.471,0.16-0.977,0.129-1.424-0.092c-0.446-0.219-0.781-0.6-0.942-1.07c-0.227-0.659-0.847-1.104-1.543-1.104H7.69V14.368h2.254  v17.273c0,0.233,0.162,0.437,0.39,0.487l13.556,3.047c0.037,0.009,0.073,0.013,0.109,0.013l0,0l0,0l0,0c0,0,0,0,0.001,0  c0.035,0,0.072-0.004,0.107-0.013l13.557-3.047c0.228-0.052,0.39-0.254,0.39-0.487V14.368h2.254v20.734H40.31z"></path><path d="M10.944,10.531L23.5,13.354v20.71l-12.556-2.822V10.531z M13.499,17.01l7.226,1.624c0.037,0.008,0.074,0.012,0.11,0.012  c0.229,0,0.435-0.158,0.487-0.391c0.061-0.271-0.109-0.537-0.378-0.599l-7.227-1.623c-0.271-0.058-0.537,0.108-0.598,0.379  C13.059,16.682,13.23,16.948,13.499,17.01z M13.499,20.382l7.226,1.624c0.037,0.008,0.074,0.012,0.11,0.012  c0.229,0,0.435-0.158,0.487-0.391c0.061-0.271-0.109-0.537-0.378-0.599l-7.227-1.624c-0.271-0.057-0.537,0.109-0.598,0.38  C13.059,20.054,13.23,20.32,13.499,20.382z M13.499,23.754l7.226,1.624c0.037,0.008,0.074,0.012,0.11,0.012  c0.229,0,0.435-0.158,0.487-0.391c0.061-0.271-0.109-0.537-0.378-0.599l-7.227-1.624c-0.271-0.06-0.537,0.109-0.598,0.379  C13.059,23.426,13.23,23.692,13.499,23.754z M13.499,26.938l7.226,1.625c0.037,0.008,0.074,0.013,0.11,0.013  c0.229,0,0.435-0.158,0.487-0.392c0.061-0.27-0.109-0.536-0.378-0.598l-7.227-1.625c-0.271-0.059-0.537,0.108-0.598,0.379  C13.059,26.61,13.23,26.877,13.499,26.938z"></path><path d="M24.5,13.354l12.556-2.821v20.709L24.5,34.063V13.354z M34.281,16.033l-7.228,1.623c-0.269,0.062-0.438,0.328-0.378,0.599  c0.052,0.231,0.259,0.391,0.486,0.391c0.037,0,0.074-0.004,0.111-0.012L34.5,17.01c0.269-0.062,0.438-0.328,0.378-0.598  C34.818,16.142,34.554,15.977,34.281,16.033z M34.281,19.404l-7.228,1.624c-0.269,0.062-0.438,0.328-0.378,0.599  c0.052,0.231,0.259,0.391,0.486,0.391c0.037,0,0.074-0.004,0.111-0.012l7.227-1.624c0.269-0.062,0.438-0.328,0.378-0.598  C34.818,19.514,34.554,19.349,34.281,19.404z M34.281,22.776L27.054,24.4c-0.269,0.062-0.438,0.328-0.378,0.599  c0.052,0.231,0.259,0.391,0.486,0.391c0.037,0,0.074-0.004,0.111-0.012l7.227-1.624c0.269-0.062,0.438-0.328,0.378-0.599  C34.818,22.886,34.554,22.718,34.281,22.776z M30.668,26.773l-3.613,0.813c-0.27,0.062-0.438,0.328-0.378,0.598  c0.052,0.232,0.259,0.392,0.487,0.392c0.035,0,0.072-0.005,0.109-0.013l3.613-0.813c0.27-0.063,0.438-0.328,0.378-0.599  C31.205,26.884,30.939,26.716,30.668,26.773z"></path></svg>