<svg height='100px' width='100px'  fill="#000000" xmlns="http://www.w3.org/2000/svg" xmlns:xlink="http://www.w3.org/1999/xlink" version="1.1" x="0px" y="0px" viewBox="0 0 100 100" enable-background="new 0 0 100 100" xml:space="preserve"><g><path d="M30.68,25.55l23.729,6.592l23.808-6.613l0,0l8.609-2.392h1.549v9.391c-0.952,0.453-1.619,1.426-1.619,2.558v6.171h5.988   v-6.171c0-1.028-0.553-1.923-1.369-2.419V21.874l0.331-0.092l-0.331-0.092v-0.053c0-0.828-0.671-1.5-1.5-1.5h-4.09l-31.376-8.716   l-37.296,10.36L30.68,25.55L30.68,25.55z"></path><path d="M86.233,78.039c-0.986-0.623-2.126-0.809-3.202-0.52c-1.096,0.293-2.008,1.039-2.567,2.102   c-0.389,0.736-0.579,1.584-0.55,2.449c0,0.018-0.008,0.033-0.009,0.051c0.001,0.016,0.009,0.029,0.008,0.045   c-0.011,0.334,0.062,0.658,0.21,0.939c0.206,0.393,0.537,0.666,0.934,0.771c0.387,0.102,0.797,0.035,1.158-0.193   c0.543-0.344,0.881-1.008,0.857-1.691c-0.018-0.551,0.415-1.014,0.967-1.031c0.551-0.031,1.015,0.412,1.033,0.965   c0.046,1.398-0.639,2.721-1.788,3.447c-0.576,0.365-1.218,0.551-1.864,0.553c-0.294,0-0.588-0.039-0.879-0.117   c-0.941-0.252-1.719-0.881-2.188-1.771c-0.304-0.574-0.453-1.232-0.438-1.9l0,0c0-0.002,0-0.002,0-0.004   c0.001-0.012-0.001-0.021-0.001-0.033c0-0.004,0.002-0.008,0.002-0.012c-0.031-1.195,0.235-2.369,0.779-3.4   c0.822-1.561,2.179-2.662,3.82-3.1c1.313-0.354,2.676-0.234,3.924,0.313l1.463,0.947c-0.017-0.033-0.037-0.064-0.054-0.098   c0.005,0.004,0.009,0.006,0.014,0.01c-0.034-0.066-0.079-0.127-0.114-0.191c-0.104-0.189-0.213-0.373-0.329-0.551   c-0.065-0.102-0.132-0.201-0.202-0.297c-0.139-0.193-0.286-0.379-0.44-0.559c-0.094-0.109-0.191-0.213-0.291-0.316   c-0.139-0.143-0.28-0.283-0.429-0.416c-0.105-0.094-0.211-0.184-0.32-0.27c-0.131-0.105-0.268-0.203-0.404-0.301   c-0.184-0.127-0.371-0.246-0.564-0.359c-0.143-0.082-0.285-0.164-0.434-0.236c-0.146-0.072-0.296-0.137-0.447-0.201   c-0.049-0.02-0.096-0.045-0.145-0.064l-0.004,0.01c-0.844-0.33-1.748-0.527-2.701-0.527c-4.262,0-7.729,3.611-7.729,8.049   c0,4.439,3.467,8.049,7.729,8.049c3.582,0,6.595-2.555,7.467-6.002c-0.006-0.053-0.027-0.1-0.025-0.152   C88.539,80.633,87.678,78.955,86.233,78.039z"></path><path d="M40.894,50.865L17.175,38.57c-1.49-0.86-2.777-1.604-4.338-1.604c-3.665,0-6.88,3.351-6.88,7.17   c0,3.584,2.842,5.524,5.505,7.061l20.57,11.338C32.873,57.281,35.838,53.367,40.894,50.865z"></path><path d="M51.047,56.129l-7.961-4.127c-0.072,0.059-0.143,0.121-0.232,0.16c-5.391,2.297-8.334,6.043-8.95,11.404l8.388,4.621   C43.016,62.756,45.946,58.709,51.047,56.129z"></path><path d="M55.652,52.313l1.273,0.4c3.239-2.006,7.26-3.707,11.82-4.839c3.237-0.805,6.441-1.251,9.471-1.372V27.605l-23.54,6.539   c-0.087,0.023-0.178,0.036-0.268,0.036s-0.181-0.013-0.268-0.036L30.68,27.626v6.845l12.207,12.48l3.589-6.798   c0.179-0.34,0.526-0.558,0.922-0.532c0.384,0.015,0.726,0.247,0.879,0.6l2.64,6.06l6.704-1.141   c0.379-0.064,0.755,0.092,0.978,0.398c0.224,0.309,0.252,0.717,0.074,1.054L55.652,52.313z"></path><polygon points="22.77,39.038 22.773,39.221 42.557,49.475 25.697,32.237  "></polygon><path d="M79.117,70.678L53.267,57.279c-0.031,0.018-0.054,0.045-0.087,0.059c-5.552,2.365-8.506,6.271-8.996,11.895L72.178,84.66   c-0.553-1.262-0.869-2.656-0.869-4.131C71.309,75.668,74.669,71.602,79.117,70.678z"></path><path d="M54.746,54.123l-0.043-0.014l0,0L52.764,53.5l0.115-0.217l0,0l3.078-5.832l-5.477,0.932   c-0.455,0.077-0.902-0.164-1.085-0.586l-2.122-4.871l-3.728,7.062l8.693,4.506l0.29-0.551l5.428,3.514l26.07,13.514   c2.571,0.859,4.67,2.801,5.809,5.299l4.207-9.775L54.746,54.123z"></path></g></svg>