<svg height='100px' width='100px'  fill="#000000" xmlns="http://www.w3.org/2000/svg" xmlns:xlink="http://www.w3.org/1999/xlink" version="1.1" x="0px" y="0px" viewBox="0 0 100 100" enable-background="new 0 0 100 100" xml:space="preserve"><path d="M71.479,79.934c0-3.211-2.608-5.819-5.833-5.819c-2.903,0-4.306,1.837-5.258,0.7c-0.31-0.364-0.45-0.784-0.52-1.598v-13.35  h11.414c2.201,0,2.944-0.084,3.534-0.562c1.136-0.952-0.716-2.354-0.716-5.271c0-3.212,2.608-5.82,5.834-5.82  c3.211,0,5.818,2.608,5.818,5.834c0,2.902-1.837,4.305-0.701,5.257c0.589,0.478,1.318,0.562,3.52,0.562H100V100H59.868V86.65  c0.069-0.813,0.21-1.234,0.52-1.6c0.952-1.136,2.354,0.7,5.258,0.7C68.87,85.751,71.479,83.144,71.479,79.934z"></path><path d="M79.935,28.522c-3.211,0-5.819,2.607-5.819,5.833c0,2.903,1.838,4.306,0.701,5.259c-0.364,0.308-0.786,0.449-1.6,0.518  h-13.35V28.718c0-2.202-0.085-2.944-0.562-3.534c-0.953-1.136-2.355,0.715-5.271,0.715c-3.211,0-5.82-2.608-5.82-5.833  c0-3.212,2.609-5.821,5.834-5.821c2.902,0,4.305,1.838,5.258,0.702c0.477-0.589,0.562-1.317,0.562-3.52V0H100v40.132H86.651  c-0.814-0.069-1.234-0.21-1.6-0.518c-1.136-0.953,0.701-2.355,0.701-5.259C85.753,31.13,83.146,28.522,79.935,28.522z"></path><path d="M28.522,20.067c0,3.21,2.609,5.819,5.834,5.819c2.903,0,4.306-1.837,5.259-0.701c0.308,0.364,0.45,0.786,0.518,1.6v13.349  H28.72c-2.202,0-2.944,0.084-3.536,0.561c-1.134,0.953,0.718,2.355,0.718,5.272c0,3.211-2.611,5.82-5.833,5.82  c-3.213,0-5.821-2.609-5.821-5.834c0-2.902,1.839-4.305,0.702-5.258c-0.589-0.477-1.318-0.561-3.52-0.561H0.001V0h40.131v13.351  c-0.068,0.813-0.209,1.233-0.518,1.598c-0.953,1.137-2.355-0.702-5.259-0.702C31.131,14.247,28.522,16.855,28.522,20.067z"></path><path d="M20.065,71.478c3.212,0,5.82-2.608,5.82-5.835c0-2.901-1.839-4.304-0.701-5.257c0.363-0.309,0.786-0.449,1.599-0.519h13.35  v11.415c0,2.199,0.083,2.943,0.56,3.534c0.955,1.132,2.357-0.717,5.273-0.717c3.212,0,5.821,2.607,5.821,5.834  c0,3.21-2.609,5.817-5.835,5.817c-2.901,0-4.304-1.836-5.258-0.7c-0.477,0.589-0.56,1.318-0.56,3.52V100H0.001V59.867H13.35  c0.813,0.069,1.232,0.21,1.6,0.519c1.134,0.953-0.702,2.355-0.702,5.257C14.248,68.869,16.855,71.478,20.065,71.478z"></path></svg>