<svg height='100px' width='100px'  fill="#000000" xmlns:x="http://ns.adobe.com/Extensibility/1.0/" xmlns:i="http://ns.adobe.com/AdobeIllustrator/10.0/" xmlns:graph="http://ns.adobe.com/Graphs/1.0/" xmlns="http://www.w3.org/2000/svg" xmlns:xlink="http://www.w3.org/1999/xlink" xmlns:a="http://ns.adobe.com/AdobeSVGViewerExtensions/3.0/" version="1.1" x="0px" y="0px" viewBox="0 0 100 100" enable-background="new 0 0 100 100" xml:space="preserve"><path d="M75.943,57.889c-0.976,0-1.938,0.169-2.839,0.492c-0.815-0.686-1.749-1.2-2.745-1.539V9.592C70.359,7.065,68.295,5,65.768,5  H20.309c-2.525,0-4.593,2.065-4.593,4.592v75.304c0,2.525,2.067,4.593,4.593,4.593h20.148l1.086,1.099  C44.069,93.146,48.513,95,52.107,95h23.594c4.733,0,8.583-3.85,8.583-8.582V66.473C84.284,61.658,80.621,57.889,75.943,57.889z   M22.604,78.011V11.887h40.867v44.234c-1.36-0.795-2.918-1.23-4.522-1.23c-0.051,0-0.101,0-0.151,0V41.736  c0-4.732-3.85-8.583-8.583-8.583c-4.732,0-8.582,3.851-8.582,8.583v24.759L40.8,65.631l-0.026-0.025l-0.021-0.022l0,0  c-1.622-1.622-3.751-2.514-6.001-2.514c-2.248,0-4.379,0.892-6.001,2.514c-1.633,1.63-2.514,3.808-2.48,6.128  c0.037,2.268,0.94,4.401,2.549,6.01l0.288,0.29H22.604z M79.45,86.418c0,2.064-1.681,3.748-3.749,3.748H52.107  c-2.268,0-5.533-1.362-7.126-2.978L32.237,74.302c-0.714-0.716-1.116-1.661-1.132-2.663c-0.016-0.998,0.363-1.938,1.063-2.637  c0.708-0.707,1.624-1.099,2.582-1.099c0.956,0,1.872,0.392,2.571,1.088l7.857,8.132c0.211,0.22,0.535,0.29,0.819,0.176  c0.283-0.114,0.468-0.391,0.468-0.694V41.736c0-2.066,1.684-3.748,3.748-3.748c2.068,0,3.749,1.682,3.749,3.748v19.637  c0,0.345,0.233,0.646,0.569,0.728c0.336,0.083,0.684-0.073,0.844-0.378c0.608-1.156,2.111-1.998,3.572-1.998  c1.978,0,3.764,1.483,3.979,3.305c0.037,0.33,0.288,0.594,0.613,0.65c0.325,0.06,0.647-0.103,0.8-0.399  c0.644-1.266,1.911-2.055,3.311-2.055c1.893,0,3.431,1.389,3.656,3.303c0.04,0.329,0.291,0.593,0.613,0.65  c0.328,0.06,0.652-0.104,0.8-0.399c0.666-1.306,1.837-2.055,3.222-2.055c1.999,0,3.507,1.61,3.507,3.748V86.418z"></path></svg>