<svg height='100px' width='100px'  fill="#000000" xmlns="http://www.w3.org/2000/svg" xmlns:xlink="http://www.w3.org/1999/xlink" version="1.1" x="0px" y="0px" viewBox="0 0 100 100" enable-background="new 0 0 100 100" xml:space="preserve"><path d="M17.208,61.153c2.829,3.431,5.271,6.394,5.271,9.309c0,5.909-8.847,22.936-8.937,23.107  c-0.158,0.304-0.146,0.667,0.031,0.96C13.751,94.821,14.068,95,14.41,95h41.277c0.297,0,0.577-0.135,0.764-0.367  c2.261-2.825,2.469-6.39,2.636-9.253c0.102-1.74,0.207-3.542,0.834-3.878c0.021-0.013,0.232-0.114,0.961-0.114  c1.341,0,3.423,0.329,5.835,0.712c3.211,0.507,6.849,1.083,10.034,1.083c2.533,0,4.429-0.367,5.795-1.121  c4.818-2.658,2.562-7.042,1.35-9.398c-0.316-0.614-0.75-1.457-0.75-1.727c0-0.304,0.698-0.645,1.313-0.945  c1.079-0.526,2.558-1.248,2.558-2.921c0-1.539-1.174-2.099-2.173-2.364c1.494-0.193,3.491-0.564,3.491-2.449  c0-1.347-0.669-2.193-1.207-2.874c-0.486-0.615-0.87-1.101-0.876-1.921c0.141-0.309,1.361-0.795,2.091-1.085  c1.705-0.679,3.636-1.446,4.254-3.145c0.347-0.954,0.201-2.036-0.433-3.214c-1.122-2.083-2.868-3.65-4.557-5.168  c-2.495-2.24-4.649-4.175-4.649-7.363c0-6.087,0-15.285-4.863-20.75C72.93,10.934,65.008,5,45.414,5  C35.018,5,20.042,9.079,12.047,20.577c-5.563,7.999-6.333,18.067-2.229,29.118C11.504,54.237,14.534,57.911,17.208,61.153z   M13.654,21.694c7.079-10.181,21.052-14.738,31.76-14.738c18.821,0,26.343,5.603,31.219,11.082  c4.369,4.909,4.369,13.659,4.369,19.449c0,4.062,2.693,6.48,5.298,8.819c1.564,1.404,3.182,2.856,4.141,4.639  c0.359,0.666,0.465,1.211,0.317,1.618c-0.318,0.874-1.816,1.47-3.138,1.995c-1.632,0.649-3.319,1.321-3.319,2.874  c0,1.528,0.717,2.435,1.293,3.164c0.501,0.634,0.784,1.024,0.783,1.689c-0.175,0.28-1.507,0.446-2.077,0.518  c-1.325,0.164-2.975,0.369-2.921,1.851c0.047,1.361,1.426,1.629,2.337,1.806c1.211,0.236,1.344,0.374,1.344,0.61  c0,0.419-0.578,0.732-1.459,1.162c-1.018,0.498-2.412,1.178-2.412,2.704c0,0.744,0.428,1.573,0.967,2.623  c1.522,2.956,2.373,5.174-0.555,6.788c-1.055,0.583-2.687,0.878-4.85,0.878c-3.032,0-6.59-0.563-9.729-1.059  c-2.493-0.395-4.646-0.736-6.141-0.736c-0.848,0-1.448,0.111-1.889,0.348c-1.588,0.855-1.715,3.002-1.858,5.487  c-0.144,2.454-0.32,5.477-1.936,7.778H16.008c2.184-4.335,8.427-17.198,8.427-22.582c0-3.617-2.649-6.832-5.718-10.553  c-2.575-3.123-5.493-6.663-7.065-10.896C7.781,38.592,8.473,29.145,13.654,21.694z"></path><path d="M47.022,32.826c0.615,0.151,1.246,0.229,1.877,0.229c3.583,0,6.727-2.405,7.647-5.847c1.089-4.051-1.327-8.245-5.383-9.35  c-0.036-0.01-0.085-0.021-0.136-0.032c-0.054-0.012-0.11-0.023-0.16-0.039c-0.564-0.128-1.143-0.193-1.721-0.193  c-3.591,0-6.742,2.403-7.664,5.844c-0.539,1.999-0.257,4.077,0.792,5.852C43.328,31.072,45.014,32.327,47.022,32.826z   M42.629,23.744c0.769-2.875,3.504-4.963,6.504-4.963c0.494,0,0.987,0.057,1.468,0.168c0.054,0.012,0.142,0.028,0.209,0.041  l0.042,0.007c3.424,0.938,5.465,4.482,4.551,7.901c-0.786,2.924-3.457,4.966-6.498,4.966c0,0,0,0,0,0  c-0.542,0-1.085-0.067-1.614-0.198c-1.688-0.416-3.109-1.473-4.002-2.974C42.41,27.172,42.175,25.415,42.629,23.744z"></path><path d="M34.835,23.931l2.51,1.137c-0.018,0.6,0.007,1.188,0.075,1.756l-2.343,1.368c-0.326,0.175-0.486,0.618-0.35,0.968  l1.109,2.868c0.137,0.354,0.529,0.568,0.896,0.493l2.638-0.543c0.378,0.536,0.753,0.993,1.143,1.391L39.38,35.95  c-0.086,0.339,0.051,0.692,0.342,0.88l2.572,1.659c0.307,0.214,0.758,0.161,1.015-0.114l1.878-2.068  c0.251,0.089,0.51,0.156,0.761,0.223l0.074,0.019c0.23,0.063,0.484,0.116,0.814,0.172l0.59,2.759  c0.086,0.36,0.397,0.612,0.756,0.612c0.022,0,0.044-0.001,0.062-0.002l3.076-0.152c0.34-0.022,0.632-0.262,0.729-0.613l0.326-2.962  c0.504-0.153,1-0.351,1.514-0.601l2.165,1.938c0.289,0.246,0.717,0.258,1.031,0.021l2.385-1.93c0.292-0.229,0.375-0.694,0.182-1.015  l-1.425-2.481c0.333-0.422,0.638-0.875,0.93-1.384l2.831,0.291c0.37,0.045,0.742-0.217,0.836-0.587l0.802-2.975  c0.1-0.37-0.089-0.768-0.439-0.927l-2.504-1.132c0.018-0.592-0.008-1.181-0.074-1.755l2.354-1.375  c0.317-0.178,0.473-0.618,0.34-0.962l-1.104-2.878c-0.127-0.307-0.412-0.504-0.729-0.504c-0.058,0-0.115,0.007-0.17,0.02  l-2.638,0.543c-0.401-0.565-0.767-1.012-1.142-1.394l1.088-2.474l0.046-0.108c0.083-0.337-0.054-0.691-0.342-0.885l-2.582-1.665  c-0.307-0.21-0.755-0.151-1.007,0.128l-1.876,2.063c-0.289-0.097-0.559-0.173-0.838-0.237c-0.253-0.071-0.51-0.12-0.813-0.173  l-0.589-2.759c-0.086-0.359-0.399-0.61-0.763-0.61c-0.02,0-0.04,0.001-0.056,0.001l-3.072,0.15  c-0.343,0.017-0.629,0.249-0.733,0.614l-0.326,2.964c-0.507,0.156-1.004,0.351-1.516,0.59l-2.161-1.923  c-0.276-0.255-0.708-0.269-1.031-0.028l-2.381,1.925c-0.301,0.234-0.386,0.702-0.188,1.018l1.421,2.485  c-0.331,0.417-0.634,0.87-0.925,1.383l-2.831-0.297c-0.396-0.021-0.743,0.222-0.839,0.576l-0.801,2.99  C34.305,23.371,34.49,23.769,34.835,23.931z M39.806,20.5c0.324-0.581,0.679-1.113,1.057-1.584c0.205-0.255,0.238-0.646,0.079-0.929  l-1.375-2.419l1.872-1.507l2.09,1.856c0.243,0.22,0.618,0.271,0.938,0.124c0.538-0.272,1.12-0.501,1.733-0.681  c0.283-0.093,0.497-0.313,0.579-0.607l0.337-2.876l2.388-0.118l0.589,2.651c0.054,0.323,0.335,0.588,0.687,0.646  c0.282,0.043,0.614,0.1,0.951,0.189c0.339,0.086,0.647,0.18,0.943,0.286c0.312,0.107,0.695,0.006,0.896-0.234l1.809-1.966  l2.007,1.296l-1.031,2.387l-0.06,0.126c-0.069,0.294,0.017,0.602,0.223,0.802c0.495,0.5,0.927,1.029,1.282,1.577  c0.154,0.229,0.422,0.371,0.697,0.371c0.061,0,0.121-0.008,0.174-0.021l2.544-0.514l0.859,2.242l-2.256,1.323  c-0.274,0.16-0.445,0.501-0.417,0.836c0.102,0.656,0.13,1.326,0.087,1.994c-0.015,0.347,0.182,0.675,0.489,0.817l2.408,1.09  l-0.62,2.321l-2.721-0.271c-0.322-0.018-0.672,0.158-0.821,0.438c-0.313,0.567-0.679,1.115-1.057,1.586  c-0.203,0.255-0.237,0.655-0.077,0.932l1.375,2.417l-1.873,1.505l-2.09-1.862c-0.256-0.216-0.643-0.27-0.933-0.125  c-0.53,0.271-1.112,0.499-1.733,0.681c-0.282,0.091-0.504,0.32-0.581,0.614l-0.336,2.87l-2.391,0.118l-0.584-2.655  c-0.065-0.315-0.342-0.571-0.691-0.633c-0.281-0.048-0.614-0.108-0.948-0.198c-0.259-0.065-0.602-0.158-0.949-0.279  c-0.085-0.032-0.176-0.048-0.27-0.048c-0.238,0-0.47,0.102-0.621,0.272l-1.815,1.973l-2-1.3l1.034-2.393l0.042-0.115  c0.079-0.275,0.001-0.585-0.206-0.813c-0.465-0.459-0.899-0.991-1.291-1.585c-0.148-0.214-0.427-0.358-0.694-0.358  c-0.059,0-0.117,0.007-0.167,0.021l-2.543,0.516l-0.865-2.238l2.255-1.323c0.275-0.162,0.448-0.516,0.411-0.844  c-0.1-0.692-0.124-1.362-0.072-1.998c0.01-0.339-0.186-0.663-0.491-0.811l-2.417-1.086l0.618-2.323l2.726,0.271  C39.308,20.968,39.645,20.788,39.806,20.5z"></path></svg>