<svg height='100px' width='100px'  fill="#000000" xmlns="http://www.w3.org/2000/svg" data-name="Layer 1" viewBox="0 0 100 100" x="0px" y="0px"><title>B___47</title><path d="M5.69238,48.273a2.50077,2.50077,0,0,0,0,3.4541C6.499,52.57178,25.73828,72.41748,50,72.41748s43.501-19.8457,44.30762-20.69043a2.50077,2.50077,0,0,0,0-3.4541C93.501,47.42822,74.26172,27.582,50,27.582S6.499,47.42822,5.69238,48.273ZM50,33.082A16.91773,16.91773,0,1,1,33.082,50,16.93743,16.93743,0,0,1,50,33.082ZM66.86017,63.9873a21.87017,21.87017,0,0,0-.00012-27.975A75.52762,75.52762,0,0,1,88.88379,50,75.526,75.526,0,0,1,66.86017,63.9873ZM33.15192,35.99841a21.86948,21.86948,0,0,0-.01215,27.98883A75.55285,75.55285,0,0,1,11.11328,49.99805,75.18651,75.18651,0,0,1,33.15192,35.99841Z"></path><path d="M50,59.82318a9.82364,9.82364,0,1,0-1.25-19.55865,5.27009,5.27009,0,0,1-8.06458,6.63018A9.80985,9.80985,0,0,0,50,59.82318Z"></path><rect x="53.75169" y="9.97945" width="14.27879" height="5.066" transform="translate(35.86931 69.4176) rotate(-77.87644)"></rect><rect x="36.57561" y="5.37306" width="5.066" height="14.27879" transform="translate(-1.75613 8.49772) rotate(-12.13063)"></rect><rect x="74.77262" y="17.23393" width="14.46416" height="5.0655" transform="matrix(0.5926, -0.8055, 0.8055, 0.5926, 17.48669, 74.10744)"></rect><rect x="15.46224" y="12.5346" width="5.0655" height="14.46416" transform="translate(-8.2136 14.50827) rotate(-36.34121)"></rect><rect x="58.35808" y="80.34719" width="5.066" height="14.27974" transform="translate(-17.025 14.74922) rotate(-12.13063)"></rect><rect x="31.96874" y="84.95406" width="14.27974" height="5.066" transform="translate(-54.64055 107.35069) rotate(-77.87726)"></rect><rect x="79.47195" y="73.00124" width="5.0655" height="14.46416" transform="translate(-31.59611 64.20168) rotate(-36.34176)"></rect><rect x="10.76292" y="77.70057" width="14.46416" height="5.0655" transform="translate(-57.29757 47.18434) rotate(-53.66008)"></rect></svg>